/* XPM */
static char *d22e5c9109714fd983a4b695de383865ZclHB3in1ZHz2Tb0[] = {
/* columns rows colors chars-per-pixel */
"128 128 16 1 ",
"  c #103008",
". c #283030",
"X c #503018",
"o c #284810",
"O c #406018",
"+ c #587820",
"@ c #404840",
"# c #605850",
"$ c #787060",
"% c #805030",
"& c #B87048",
"* c #709030",
"= c #88A838",
"- c #908878",
"; c #E08058",
": c #B0A088",
/* pixels */
"****+++***=***++*++++****==*====*++****==*******=*******++O+++***=****=***====*++****===******=********+O+++***=********===**++*",
"****+++***=***++*++++****==*====*++****==*******=*******++O+++***=****=***====*++****===******=********+O+++***=********===**++*",
"****+++***=***++*++++****==*====*++****==*******=*******++O+++***=****=***====*++****===******=********+O+++***=********===**++*",
"****+++***=***++*++++****==*====*++****==*******=*******++O+++***=****=***====*++****===******=********+O+++***=********===**++*",
"**==****==*===******===*=**====*=**=====*====*==*===**+++++++**==*===**======****======*===*==*===***++++++**==*=========**++**=",
"***+**==========*==**============****====***======***=*****++++***============*****=====**======***==****++++***=******====*+***",
"***+**==========*==**============****====***======***=*****++++***============*****=====**======***==****++++***=******====*+***",
"***+**==========*==**============****====***======***=*****++++***============*****=====**======***==****++++***=******====*+***",
"***+**==========*==**============****====***======***=*****++++***============*****=====**======***==****++++***=******====*+***",
"**=*==****====**=**==**=***=====*+++*****===**===*======**=******+*========***++++******==**===*=======*=******+*++++++**+++++++",
"**=*==****====**=**==**=***=====*+++*****===**===*======**=******+*========***++++******==**===*=======*=******+*++++++**+++++++",
"**=*==****====**=**==**=***=====*+++*****===**===*======**=******+*========***++++******==**===*=======*=******+*++++++**+++++++",
"++**++++++****=====**==*====*****************=**==========***====*====*===*+++O************=**==========***====*=====**=*+++O***",
"++**++++++****=====**==*====*****************=**==========***====*====*===*+++O************=**==========***====*=====**=*+++O***",
"******++++++**===********==********++**++*****==========**========+==*=***=***+**++**+++****===========*========+===*==*=***+**+",
"******++++++**===********==********++**++*****==========**========+==*=***=***+**++**+++****===========*========+===*==*=***+**+",
"******++++++**===********==********++**++*****==========**========+==*=***=***+**++**+++****===========*========+===*==*=***+**+",
"**+*++*++++*====****+**********++++O++++*++++****===*==========++**++O*+++***=*++O+++++*+++****===*==========++**+++O**+***=*++O",
"**+*++*++++*====****+**********++++O++++*++++****===*==========++**++O*+++***=*++O+++++*+++****===*==========++**+++O**+***=*++O",
"+++++++O++*+*******+*+++***+++++OOO+O++O+*******=*===*==**+**+*==*=OO*+***+***+OO+O++OO+******=*===**==*+**+*==*=OOO*++*+***+OO+",
"+++++++O++*+*******+*+++***+++++OOO+O++O+*******=*===*==**+**+*==*=OO*+***+***+OO+O++OO+******=*===**==*+**+*==*=OOO*++*+***+OO+",
"+++++++O++*+*******+*+++***+++++OOO+O++O+*******=*===*==**+**+*==*=OO*+***+***+OO+O++OO+******=*===**==*+**+*==*=OOO*++*+***+OO+",
"OO++++OOOO++++OO+++++++*****+++OOooO++++*+++*=**====*******++*=**=***+++++*++*+ooO+++++*++*=**====*******++*=**=****++++*++*+ooO",
"OO++++OOOO++++OO+++++++*****+++OOooO++++*+++*=**====*******++*=**=***+++++*++*+ooO+++++*++*=**====*******++*=**=****++++*++*+ooO",
"OOO+OOOO++O+OOooO++++**+*++*++++oOOO+++++*****==*=***+**++***+***++++O++++++++OOOO++++++****==*=***++**+***+***+++++O+++++++OOOO",
"OOO+OOOO++O+OOooO++++**+*++*++++oOOO+++++*****==*=***+**++***+***++++O++++++++OOOO++++++****==*=***++**+***+***+++++O+++++++OOOO",
"OOO+OOOO++O+OOooO++++**+*++*++++oOOO+++++*****==*=***+**++***+***++++O++++++++OOOO++++++****==*=***++**+***+***+++++O+++++++OOOO",
"OOOOooOOOOOO++OOOOO++++++++++++OoOOO+OO++***+*******+*++**+++O++++OOOOOOOOOOOOoOOO+OO+++**+*******+**++*+++O++++OOOOOOOOOOOOoOOO",
"OOOOooOOOOOO++OOOOO++++++++++++OoOOO+OO++***+*******+*++**+++O++++OOOOOOOOOOOOoOOO+OO+++**+*******+**++*+++O++++OOOOOOOOOOOOoOOO",
"OOOOooOOOOOO++OOOOO++++++++++++OoOOO+OO++***+*******+*++**+++O++++OOOOOOOOOOOOoOOO+OO+++**+*******+**++*+++O++++OOOOOOOOOOOOoOOO",
"ooOoOOoOOOOOOOOOoOOO+OOOOOOOOOOOoOOOO++OO+++*+++*+++++++++O++++++OOOOOooooOooOOOOOO++OOO++*+++*+++++++++O++++++OOOOOOoooOooOOOOO",
"ooOoOOoOOOOOOOOOoOOO+OOOOOOOOOOOoOOOO++OO+++*+++*+++++++++O++++++OOOOOooooOooOOOOOO++OOO++*+++*+++++++++O++++++OOOOOOoooOooOOOOO",
"OOOOOOoOOOoOOOooOOOOOooooOOoooooOooOOOO+OOOO++OOO+OO+O++OO+OOOOOOoOoooOOOOO  OOoooooooooooOoOOOoOOOOOOOooooOooooOoooOOOO+OOO+++O",
"OOOOOOoOOOoOOOooOOOOOooooOOoooooOooOOOO+OOOO++OOO+OO+O++OO+OOOOOOoOoooOOOOO  OOoooooooooooOoOOOoOOOOOOOooooOooooOoooOOOO+OOO+++O",
"OOOOOOoOOOoOOOooOOOOOooooOOoooooOooOOOO+OOOO++OOO+OO+O++OO+OOOOOOoOoooOOOOO  OOoooooooooooOoOOOoOOOOOOOooooOooooOoooOOOO+OOO+++O",
"OOoO  oOooOOoooooooOooooOoo ooooo  ooOOOOOOOO+++oO++OOOOOOOooOoooOoOO oOOOo  O oooooo  ooooOOOoooooOOooooOOo oooo   oooOOOOOO+++",
"OOoO  oOooOOoooooooOooooOoo ooooo  ooOOOOOOOO+++oO++OOOOOOOooOoooOoOO oOOOo  O oooooo  ooooOOOoooooOOooooOOo oooo   oooOOOOOO+++",
"oo O   oooooOO   ooOo   o   ooo    o   ooooooOOOoOOOoOooooOoooooooooo  ooo   Ooooo oo   ooooooO   oOOoo  oo  oo     o   oooooOOO",
"oo O   oooooOO   ooOo   o   ooo    o   ooooooOOOoOOOoOooooOoooooooooo  ooo   Ooooo oo   ooooooO   oOOoo  oo  oo     o   oooooOOO",
"oo O   oooooOO   ooOo   o   ooo    o   ooooooOOOoOOOoOooooOoooooooooo  ooo   Ooooo oo   ooooooO   oOOoo  oo  oo     o   oooooOOO",
"   o      oooo     o               o oo oooo oooooooOooo  oooo oo o   o      oo    oo      oooo    oo               o  o ooo ooo",
"   o      oooo     o               o oo oooo oooooooOooo  oooo oo o   o      oo    oo      oooo    oo               o  o ooo ooo",
"    ...   o oo...  o   @########@@@ .         ooo ooo     ooo  oo  .. o   ...o ..  oo              oo  .............o  o       o",
"    ...   o oo...  o   @########@@@ .         ooo ooo     ooo  oo  .. o   ...o ..  oo              oo  .............o  o       o",
"    ...   o oo...  o   @########@@@ .         ooo ooo     ooo  oo  .. o   ...o ..  oo              oo  .............o  o       o",
"..........@   ..@@@ @@@#$$$########@@...          ooo     ooo  oo..... ......@.....@@@@           ..............@@@@@##@        ",
"..........@   ..@@@ @@@#$$$########@@...          ooo     ooo  oo..... ......@.....@@@@           ..............@@@@@##@        ",
"..........@   ..@@@ @@@#$$$########@@...          ooo     ooo  oo..... ......@.....@@@@           ..............@@@@@##@        ",
"..........@   ..@@@ @@@#$$$########@@...          ooo     ooo  oo..... ......@.....@@@@           ..............@@@@@##@        ",
"  ......@@.@  @@@@@@###$$$$$$$$#####@@@@.....     oo      o  ..oo..........@@.@...@#####$$-$##@..............@@@@@@@@$$#####@   ",
"....@@.@..@@@@@@@##$$$$$$$$$$$$$$######@@.................o....  .........@..@...@##########@@...........@@@@@@@@--------$$#@...",
"....@@.@..@@@@@@@##$$$$$$$$$$$$$$######@@.................o....  .........@..@...@##########@@...........@@@@@@@@--------$$#@...",
"....@@.@..@@@@@@@##$$$$$$$$$$$$$$######@@.................o....  .........@..@...@##########@@...........@@@@@@@@--------$$#@...",
"....@@.@..@@@@@@@##$$$$$$$$$$$$$$######@@.................o....  .........@..@...@##########@@...........@@@@@@@@--------$$#@...",
"...@..@@@@@@@@@@@----:::-$$$$$$$$####@@@@...............@@@@@@@@@@@@@......@@@@................@..@@@@@@@@@@@----::::--$$$$$$###",
"..@.@@@@@@@@@@$$----:::--$$$$$$$#$$#@##@@........@@@@@###############@@....@@@@@@.......@@.@..@.@@@@@@@@@@@$----::::---$$$$$#$$#",
"..@.@@@@@@@@@@$$----:::--$$$$$$$#$$#@##@@........@@@@@###############@@....@@@@@@.......@@.@..@.@@@@@@@@@@@$----::::---$$$$$#$$#",
"..@.@@@@@@@@@@$$----:::--$$$$$$$#$$#@##@@........@@@@@###############@@....@@@@@@.......@@.@..@.@@@@@@@@@@@$----::::---$$$$$#$$#",
"..@.@@@@@@@@@@$$----:::--$$$$$$$#$$#@##@@........@@@@@###############@@....@@@@@@.......@@.@..@.@@@@@@@@@@@$----::::---$$$$$#$$#",
"@@.@..@@##$------::::::$-$$$$$$#$##@#@@@......@@@@@@@@##$$$$$-:::::--$#@@@@@@@@..@.....@..@.@@.@..@@@##$-----:::::::$--$$$$#$##@",
"..@.@@.@@@#$$$$$$--:---$$$$$###$####@@@@.....@######@@@@@@#$$$-::::::-$###@##@@@@....@@@@@@@..@.@@.@@@@#$$$$$--:----$$$$$##$####",
"..@.@@.@@@#$$$$$$--:---$$$$$###$####@@@@.....@######@@@@@@#$$$-::::::-$###@##@@@@....@@@@@@@..@.@@.@@@@#$$$$$--:----$$$$$##$####",
"..@.@@.@@@#$$$$$$--:---$$$$$###$####@@@@.....@######@@@@@@#$$$-::::::-$###@##@@@@....@@@@@@@..@.@@.@@@@#$$$$$--:----$$$$$##$####",
"..@.@@.@@@#$$$$$$--:---$$$$$###$####@@@@.....@######@@@@@@#$$$-::::::-$###@##@@@@....@@@@@@@..@.@@.@@@@#$$$$$--:----$$$$$##$####",
"@@.@..@.@@@#$$##$$$-$$$$#$$#$$$####@#@@.....@#$$$$####@@@@#@@#$--:::::-$$$###@@......@@@@@@@@@.@..@..@@@#$$#$$$-$$$$$##$#$$####@",
"@@.@..@.@@@#$$##$$$-$$$$#$$#$$$####@#@@.....@#$$$$####@@@@#@@#$--:::::-$$$###@@......@@@@@@@@@.@..@..@@@#$$#$$$-$$$$$##$#$$####@",
"@@.@..@.@@@#$$##$$$-$$$$#$$#$$$####@#@@.....@#$$$$####@@@@#@@#$--:::::-$$$###@@......@@@@@@@@@.@..@..@@@#$$#$$$-$$$$$##$#$$####@",
"@@@@@@.@..@@##@@#$$$$###$##$###@#@@#@....@@@#$---$$$$$####@##@#$$------$$$$$$#@@@....@@@##@#@@@@@@.@@..@@##@#$$$$####$$#$##@#@@#",
"@@@@@@.@..@@##@@#$$$$###$##$###@#@@#@....@@@#$---$$$$$####@##@#$$------$$$$$$#@@@....@@@##@#@@@@@@.@@..@@##@#$$$$####$$#$##@#@@#",
"###@@@@@@@.@@@@@#########@@#@@@#@##@....@###$-::--$$$$$$###@@####$---$$$$$$##@@....@@@@#@@#@###@@@@@@@@.@@@@###########@#@@#@##@",
"###@@@@@@@.@@@@@#########@@#@@@#@##@....@###$-::--$$$$$$###@@####$---$$$$$$##@@....@@@@#@@#@###@@@@@@@@.@@@@###########@#@@#@##@",
"###@@@@@@@.@@@@@#########@@#@@@#@##@....@###$-::--$$$$$$###@@####$---$$$$$$##@@....@@@@#@@#@###@@@@@@@@.@@@@###########@#@@#@##@",
"######@@@@@.@@@@@@@@@@@@@##@###@@......@#$$$-:--:---$$$$##@##@####-$$#$###$$$#@....@@@@@##@#######@@@@@@.@@@@@@@@@@@@@@#@##@@...",
"######@@@@@.@@@@@@@@@@@@@##@###@@......@#$$$-:--:---$$$$##@##@####-$$#$###$$$#@....@@@@@##@#######@@@@@@.@@@@@@@@@@@@@@#@##@@...",
"###$####@@@@@@@@@@@@@@@@.............@@#----::::-:--$$$$###@@@@###$--$#$$$#####...@@@@@#@@#####$#####@@@@@@@@@@@@@@@@...........",
"###$####@@@@@@@@@@@@@@@@.............@@#----::::-:--$$$$###@@@@###$--$#$$$#####...@@@@@#@@#####$#####@@@@@@@@@@@@@@@@...........",
"###$####@@@@@@@@@@@@@@@@.............@@#----::::-:--$$$$###@@@@###$--$#$$$#####...@@@@@#@@#####$#####@@@@@@@@@@@@@@@@...........",
"##$#$$#@@@@@@@##@@@####@@............@@#:---:::::---$$$$###@@@@@@##$$$####@###@..@@@@##@######$#$$#@@@@@@@@#@@@#####@@@.........",
"##$#$$#@@@@@@@##@@@####@@............@@#:---:::::---$$$$###@@@@@@##$$$####@###@..@@@@##@######$#$$#@@@@@@@@#@@@#####@@@.........",
"$$#$$$#@###@@@@@###$$###@##.........#--:-:::-:::-:---$$$###@@@@@@##$$-$$$$$##@#@@@@##@@#@@##$$#$$$#@@###@@@@###$$####@@#........",
"$$#$$$#@###@@@@@###$$###@##.........#--:-:::-:::-:---$$$###@@@@@@##$$-$$$$$##@#@@@@##@@#@@##$$#$$$#@@###@@@@###$$####@@#........",
"$$#$$$#@###@@@@@###$$###@##.........#--:-:::-:::-:---$$$###@@@@@@##$$-$$$$$##@#@@@@##@@#@@##$$#$$$#@@###@@@@###$$####@@#........",
"##$$$$#@####@@##-:::-$$##$$@.......#-::-$---:::::-----$$###@@@@@@@#$$-----$###@@@#@@@##@###$##$$$$#@@####@@#-:::-$$$###$@......#",
"##$$$$#@####@@##-:::-$$##$$@.......#-::-$---:::::-----$$###@@@@@@@#$$-----$###@@@#@@@##@###$##$$$$#@@####@@#-:::-$$$###$@......#",
"##$$$$#@####@@##-:::-$$##$$@.......#-::-$---:::::-----$$###@@@@@@@#$$-----$###@@@#@@@##@###$##$$$$#@@####@@#-:::-$$$###$@......#",
"$$#$####$$####--::::---$-##@@@@..@@#$--:-:::::::-:---$#####@@@.@@@###$----$##@.@@@#@@@@#@@##$$#$#####$$####-::::----$--#@@@..@@#",
"$$#$####$$####--::::---$-##@@@@..@@#$--:-:::::::-:---$#####@@@.@@@###$----$##@.@@@#@@@@#@@##$$#$#####$$####-::::----$--#@@@..@@#",
"$$#$$$$$####--::::::-:::$##@@@@@.@@@#::-::::::--:---$$####@@@....@####$---$##@@@@#@##@@@###$$$#$$$$$$####--:::::-::::$$#@@@@.@@@",
"$$#$$$$$####--::::::-:::$##@@@@@.@@@#::-::::::--:---$$####@@@....@####$---$##@@@@#@##@@@###$$$#$$$$$$####--:::::-::::$$#@@@@.@@@",
"$$#$$$$$####--::::::-:::$##@@@@@.@@@#::-::::::--:---$$####@@@....@####$---$##@@@@#@##@@@###$$$#$$$$$$####--:::::-::::$$#@@@@.@@@",
"$$#$##$#####--:::::::::-$###@@@..@@#---::::::-::--$$$#####@@@@....@$$$####$##@@@@@#@@###$$$$$$#$##$######--:::::::::-$$##@@..@@#",
"$$#$##$#####--:::::::::-$###@@@..@@#---::::::-::--$$$#####@@@@....@$$$####$##@@@@@#@@###$$$$$$#$##$######--:::::::::-$$##@@..@@#",
"############--::::::----$###@@@..@@#-:::::::-:--$$$$####@@@@@@....@###$$$$#@@@@@@@@######################--:::::-----$$##@@..@@#",
"############--::::::----$###@@@..@@#-:::::::-:--$$$$####@@@@@@....@###$$$$#@@@@@@@@######################--:::::-----$$##@@..@@#",
"############--::::::----$###@@@..@@#-:::::::-:--$$$$####@@@@@@....@###$$$$#@@@@@@@@######################--:::::-----$$##@@..@@#",
"$$$#####$$$$--:::::--$$$#@@@...@.@@#-:::::::--$$$#####@@@@@@@@@@@@@OO+*======*+***+++#########O+++*==**=====*++*====*****===*===",
"$$$#####$$$$--:::::--$$$#@@@...@.@@#-:::::::--$$$#####@@@@@@@@@@@@@OO+*======*+***+++#########O+++*==**=====*++*====*****===*===",
"$$$#######$###------$$$#@@@.....@@@##::::---#$#######@@@@@@@@#$+++===*====***======**+++####OO++********=**=*===****+++++***=**=",
"$$$#######$###------$$$#@@@.....@@@##::::---#$#######@@@@@@@@#$+++===*====***======**+++####OO++********=**=*===****+++++***=**=",
"$$$#######$###------$$$#@@@.....@@@##::::---#$#######@@@@@@@@#$+++===*====***======**+++####OO++********=**=*===****+++++***=**=",
"$$$########$$$$$$$$$$##@@......@.@@##:::----$#$$#@@@@@@@@@@##++%%%%++=*===*==****=*==***++&&&&&&++*++**====*===*++++O++O+OO+*++*",
"$$$########$$$$$$$$$$##@@......@.@@##:::----$#$$#@@@@@@@@@@##++%%%%++=*===*==****=*==***++&&&&&&++*++**====*===*++++O++O+OO+*++*",
"$$$########$$$$$$$$$$##@@......@.@@##:::----$#$$#@@@@@@@@@@##++%%%%++=*===*==****=*==***++&&&&&&++*++**====*===*++++O++O+OO+*++*",
"$$$########$$$$$$$$$$##@@......@.@@##:::----$#$$#@@@@@@@@@@##++%%%%++=*===*==****=*==***++&&&&&&++*++**====*===*++++O++O+OO+*++*",
"###@###$$$######$$$####@@@@......@@#$--:-$$$#$########$$@@#+++%&&;;&&+=***+**+*++**=====****===***=**++*=******+*+++oOOooOOoO+++",
"##@@####$$$$####$---$$$##@@@....@@@#$---$$$$$#$$#$##$$--##$++O%%%%&;;&+****++++***+**==***+***=*==*==***+**+*++++OOO%%%% ooO+OO+",
"##@@####$$$$####$---$$$##@@@....@@@#$---$$$$$#$$#$##$$--##$++O%%%%&;;&+****++++***+**==***+***=*==*==***+**+*++++OOO%%%% ooO+OO+",
"##@@####$$$$####$---$$$##@@@....@@@#$---$$$$$#$$#$##$$--##$++O%%%%&;;&+****++++***+**==***+***=*==*==***+**+*++++OOO%%%% ooO+OO+",
"##@@####$$$$####$---$$$##@@@....@@@#$---$$$$$#$$#$##$$--##$++O%%%%&;;&+****++++***+**==***+***=*==*==***+**+*++++OOO%%%% ooO+OO+",
"@@@@###$--$###$$$--:-$$#@##@@@@..@@@$---$###$###$#$$$$$$$$+++O%XXX%&&;+++++**+*++++++***++**++**++***==**++*+++O++++%%%+o  oOooo",
"@@@@$$----$#$$$$-::-$$$####@.....@@@#--$########$$##$#####+OO%XXXXX%%&OoooO+++***+*+++++**+****+**+********+O+++O++++**o%%%%ooo ",
"@@@@$$----$#$$$$-::-$$$####@.....@@@#--$########$$##$#####+OO%XXXXX%%&OoooO+++***+*+++++**+****+**+********+O+++O++++**o%%%%ooo ",
"@@@@$$----$#$$$$-::-$$$####@.....@@@#--$########$$##$#####+OO%XXXXX%%&OoooO+++***+*+++++**+****+**+********+O+++O++++**o%%%%ooo ",
"@@@@$$----$#$$$$-::-$$$####@.....@@@#--$########$$##$#####+OO%XXXXX%%&OoooO+++***+*+++++**+****+**+********+O+++O++++**o%%%%ooo ",
"@@@###$-$$#$$$--:--$$$$$#@@#.......@@$$-$####$$$#-$$-$####+OOoXXXXXXX&&OOOooooO++++OOOO+++*+OO+++++++**+***++@@oOOOOO++****++++%",
"..@#$$----$-----$$$$$$$##@@@@@@.....@##$$###$$---:---#####+OOO$XXXXXX%&&&&%%% oOOOOOOooO+++O++O+OO+**++*+++O+OO ooooO++**+++***+",
"..@#$$----$-----$$$$$$$##@@@@@@.....@##$$###$$---:---#####+OOO$XXXXXX%&&&&%%% oOOOOOOooO+++O++O+OO+**++*+++O+OO ooooO++**+++***+",
"..@#$$----$-----$$$$$$$##@@@@@@.....@##$$###$$---:---#####+OOO$XXXXXX%&&&&%%% oOOOOOOooO+++O++O+OO+**++*+++O+OO ooooO++**+++***+",
"..@#$$----$-----$$$$$$$##@@@@@@.....@##$$###$$---:---#####+OOO$XXXXXX%&&&&%%% oOOOOOOooO+++O++O+OO+**++*+++O+OO ooooO++**+++***+",
"..@#---$--$$--::$$$$####@##@@@@......@@$-$$$$-----::##@@@@+OOO#XXXXXX &&&&&&&oOooooOOOOoOOO+OOoOOOO+++++OOOO+++o    o++++OOO+***",
"..@#---$--$$--::$$$$####@##@@@@......@@$-$$$$-----::##@@@@+OOO#XXXXXX &&&&&&&oOooooOOOOoOOO+OOoOOOO+++++OOOO+++o    o++++OOO+***",
"..@#---$--$$--::$$$$####@##@@@@......@@$-$$$$-----::##@@@@+OOO#XXXXXX &&&&&&&oOooooOOOOoOOO+OOoOOOO+++++OOOO+++o    o++++OOO+***",
"..@#$$--$$--::$$@@@@###@#@@@...........@$####-----::-@@@@@#++O#XX%%%%o&%%%+OOoo  OooooooOOOO++OOOOoOOooOOooOOooOOOOOoOOOOooOO+++",
"..@#$$--$$--::$$@@@@###@#@@@...........@$####-----::-@@@@@#++O#XX%%%%o&%%%+OOoo  OooooooOOOO++OOOOoOOooOOooOOooOOOOOoOOOOooOO+++",
"..@@##$---::--@@@##@#@@#@@@@............@###$$---###$$@@##$++*+%%XXXX**+++Ooo  ooo ooooOooooooOOoooooOOooOOoOooo oooOooo   O+++O",
"..@@##$---::--@@@##@#@@#@@@@............@###$$---###$$@@##$++*+%%XXXX**+++Ooo  ooo ooooOooooooOOoooooOOooOOoOooo oooOooo   O+++O",
"..@@##$---::--@@@##@#@@#@@@@............@###$$---###$$@@##$++*+%%XXXX**+++Ooo  ooo ooooOooooooOOoooooOOooOOoOooo oooOooo   O+++O",
"...@@@#$$$--$$###@@#@##@@@@..............@@@#$$$#@@@#$##$$%OO+OXXXX***Oooo   XX   ooo  o   oooooOOoOOoo o  o        o   X  oO++O"
};
